<svg version="1" xmlns="http://www.w3.org/2000/svg" width="1082.667" height="1082.667" viewBox="0 0 812.000000 812.000000"><path d="M507.6 217.9c-.6.9-4.8 25.1-8.7 50.3l-1.1 6.7-8.6.3c-10.9.4-12.4 2.4-2.4 3.4 3.8.3 7.5 1 8.2 1.4.9.6.5 3.5-1.9 12.1-5.4 19.3-9.4 25.3-15.3 23-6.7-2.6-11.1-10.8-11.4-21.1-.3-6.4-.6-7.5-2.1-7.5-1 0-2 .2-2.3.5-.3.3-1.7 1.3-3.2 2.3-2.5 1.5-2.8 2.4-2.8 7 0 15.1 7.7 23.6 21.2 23.7 4.9 0 6.2-.4 9.1-2.9 4.1-3.7 9.9-15.8 12.8-27.1 1.3-4.7 2.4-8.7 2.5-8.9.2-.1 5.5 0 11.8.4l11.6.7 2.6 8.2c1.4 4.4 2.8 10.5 3.1 13.3.4 3.2 1.1 5.3 1.8 5.3 1.9 0 6.5-5 6.5-7.1 0-1.8-2.6-14.9-3.6-18.2-.4-1.4.1-1.7 2.5-1.7s3.1-.4 3.1-2-.7-2-3.4-2c-3.3 0-3.4-.2-5.9-7.3-1.3-3.9-6.1-17.6-10.4-30.2-7.5-21.4-8.2-23-10.6-23.3-1.4-.2-2.8.2-3.1.7zm5.3 32c1.7 4.4 4.7 12.3 6.6 17.7l3.5 9.7-6.1-.7c-3.4-.3-7.9-.6-10-.6-4.8 0-4.8-.1-1.9-18 3.2-19.4 3.3-19.5 7.9-8.1zM539 227.8l-3.3 2.8 2.1 3c1.7 2.3 3.1 8.7 6.7 31.9 4.1 26 5.3 32.6 7 40.2.4 1.6 1.3 2.3 3 2.3 3.6 0 4.9-3.2 4.1-10.6-.7-6.7-8.3-50.5-11-63.4-.9-4.1-1.6-7.8-1.6-8.3 0-1.6-3.8-.5-7 2.1zM109.5 233.2c-9.2 3.3-19.5 15-29 33-5 9.4-6 10.8-8.3 10.9-2.4.2-2.4.2-.4.6 2.4.5 2.6 1.1 1.3 3.1-.7 1.1-2.5 1.2-9.4.3-7-.8-9.7-.7-14.4.5-16.1 4.2-25.9 17-19 24.9 1.7 2 3.4 2.7 8 3.2 5.2.5 6.4.3 13.3-3.2 4.8-2.3 10.1-6.1 14.4-10.2l6.9-6.4 19.8 3.5c10.9 2 22.9 3.6 26.6 3.6 5.9 0 7.1-.3 9.3-2.5 1.7-1.7 2.4-3.4 2.2-5.2l-.3-2.7-12 .2c-10.9.2-38.7-2.7-40.1-4.1-.3-.3-.1-1.4.5-2.5.8-1.5 2.6-2.1 7.8-2.6 21.9-2.2 43.7-12.7 50-23.9 2.1-3.7 1.6-11-.9-14.7-3.5-5.1-8.1-7-16.3-6.9-3.8 0-8.3.5-10 1.1zm11.8 5.9c5.8 3 8.8 8.8 7.2 13.8-1.1 3.6-5.4 7.9-10.8 11-6.4 3.6-24.1 9.8-31.3 11l-5.4.8 2.6-4.6c15.1-26.2 27.8-37.1 37.7-32zm-57.9 49.5l4.7.7-4.8 4.9c-9 9.3-20.4 12.7-26.3 8-2.2-1.8-2.2-1.9-.5-5.5 3.5-7.4 12.3-10.1 26.9-8.1zM438.2 235.3c-2.6 2.7-4 13.7-2.3 18.1 1.1 2.8 1.2 2.8 3.3 1 2.9-2.6 9.8-13.4 9.8-15.4 0-2.2-4.2-6-6.6-6-1.1 0-3 1-4.2 2.3zM259 241.1c-2.6 8.6-7.6 31.4-8.6 38.5l-.6 5.1-7.9.7c-8.3.7-10.9 1.3-10.9 2.6 0 1.2 4 2 10.8 2 6.1 0 6.3.1 5.6 2.2-5.8 19-12.7 28.2-19.7 26.4-6.4-1.6-11.6-9.5-11.7-17.5 0-3.7-.2-4.2-1.7-3.6-1 .4-2.5.8-3.3.9-2.1.2-5 4-5 6.5 0 3.3 2.8 9.3 5.8 12.5 7.8 8.3 20.8 8.5 29.1.6 3.2-3.2 7.8-13.3 9.8-21.9l1.7-7.1h23.4l2.1 6.2c1.1 3.5 2.1 7.8 2.3 9.6l.3 3.2 3.2-2.2c4.8-3.4 5-4.7 1.7-16.1-.4-1.3.1-1.7 2.5-1.7s3.1-.4 3.1-1.9-.8-2-3.6-2.3l-3.6-.3-8-23c-4.4-12.7-8.2-23.8-8.5-24.8-.3-1.1-1.5-1.7-3.4-1.7-2.6 0-3 .5-4.9 7.1zm8.7 28c6.6 16.5 7 14.9-3.6 14.9-10.3 0-9.8.6-7.5-9 2.8-12 4.5-17.1 5.7-16.7.7.2 3.1 5.1 5.4 10.8zM635.4 236.7c-.6 2-1.1 2.9-3.7 6.6-1.2 1.6-1.6 3.4-1.2 4.7.4 1.1 6 7.8 12.6 14.8 6.6 7 12.3 13.8 12.6 15.1.9 3.8-.9 5.6-5.9 5.9-8.2.5-11.6-5.2-6.8-11.6 2-2.7 2.1-3.4 1-4.7-3-3.6-10.2.5-11.5 6.6-1.2 5.5 2.5 13.9 6.1 13.9.8 0 1.3.3 1.1.7-.8 1.3 13.7 1.5 18 .4 4.2-1.1 8.6-5.2 9.7-8.8 1.4-4.4-2.7-10.4-16.2-23.7-12.6-12.5-13-13-12.9-16.9.2-4.2-1.8-6.3-2.9-3zM397 240.5c-1.2 2.7-2.5 6.9-2.7 9.3-.7 5.5 2.1 9.7 13.6 20 17.1 15.3 21.1 20.6 19.2 25.4-.9 2.3-1.7 2.8-4.4 2.8-4.5 0-8-2.9-9.7-8-1.1-3.3-1.1-4.6-.2-6.1.7-1 1.2-3 1.2-4.3 0-3.2-4.2-4.3-7.7-2.1-3 2-4.3 5.3-4.3 11.3 0 5.9 2.5 10.2 8.1 13.9 7.7 5.1 21.2 3.1 24.6-3.8 1.9-3.6 1.5-11.8-.7-16.6-1.1-2.5-6.4-8.7-13.2-15.5-12.7-12.6-17.1-18.4-19.8-26.1l-1.8-5.2-2.2 5zM597.1 258.7c-3.6 12.5-2.7 14.4 9.6 20.3 17 8.1 20.7 11.5 16.7 15.4-2.2 2.3-5.1 2-7.8-.7-1.7-1.7-2.2-3.1-1.9-5 .7-3.4-1.8-4.5-5.2-2.3-2 1.3-2.5 2.5-2.5 5.7 0 8.1 8 11.3 17.6 7 5.4-2.5 8.4-6.4 8.4-11.1 0-4.5-.3-4.8-15-14-12.5-7.9-15-10.1-15-13.5 0-1.2-.9-3-1.9-3.9-1.9-1.7-2-1.7-3 2.1zM684.2 263c-5.9 2.7-6.3 4.6-1.9 8.7 4.5 4.1 8.3 4.3 12.6.7 3.7-3.1 4.1-6.7.9-8.8-3.9-2.5-7.1-2.7-11.6-.6zM154.4 268.9c-11.5 7-9.5 22.1 2.9 22.1 4.2 0 10.8-2.7 11.4-4.7.2-.6-1.7-1.3-4.3-1.6-7-.8-12.1-7-9.1-11.1 1-1.4 2.1-1.7 4-1.2 3.4.8 3.4 2.6.2 5.6-4.1 3.8-2 3.5 3.9-.6 6.3-4.4 7.8-7.1 5-9.1-2.6-1.9-10.4-1.6-14 .6zM359.3 271.5c-3.8 3.8-4 6.8-.6 7.3 4.7.7 10.9-6.2 8.3-9.3-1.9-2.3-3.9-1.8-7.7 2zM184.8 271.5c-4.4 3-6.3 7.8-4.3 11 .9 1.5 2.5 2.1 6.8 2.3 5.5.3 8.5 2 7.2 4.2-.9 1.5-5 1.2-8.9-.6-3.7-1.8-6.6-1.4-6.6.9 0 1.5 3.2 3.1 8.2 4.3 1.4.3 5.1.1 8.2-.6 5.8-1.2 9.6-4.4 9.6-8.1 0-2.8-4.8-5.9-9.1-5.9-4.4 0-8.9-1.5-8.9-3 0-1.7 3.1-2.4 5.1-1.2 2.9 1.8 5.7 1.4 6.4-.8 1.7-5.3-7.2-6.9-13.7-2.5zM574.8 278.7c-2.1 2.4-4.2 6.8-6.3 13.1-1.6 5.1-1.6 5.4.1 7.3 3.2 3.6 14.3 1.7 17.6-3 1.5-2.1 1.5-2.1 4.3.9 3.3 3.5 6.4 3.8 9 1.1 1.6-1.9 1.6-2.1-.4-5-1.2-1.6-4.5-5.1-7.4-7.7-9.3-8.4-13.8-10.2-16.9-6.7zm7.9 9.7c2.7 2.4 2.8 2.4.9 4.5-2.7 3-5.4 3.6-7.7 1.5-2.1-1.9-2.6-7-.6-7.7 2.6-1.1 4.7-.6 7.4 1.7zM676.2 279.7c-2.9.6-4.2 4-4.2 10.6.1 6.3 1.8 11.5 5.5 16.3 3.3 4.3 4.5 4.8 9 4 5.4-1 6-3.4 2.9-11.2-2.1-5.3-2.5-7.5-2-11.7.3-2.9.2-5.8-.2-6.5-1-1.5-7.3-2.3-11-1.5zM375.5 282.3c-7.5 4.3-8.7 10.7-1.9 10.7 2.4 0 3.4.4 3.1 1.2-.2.8-2.2 1.3-4.8 1.3-3.3 0-4.4.4-4.7 1.7-.7 3.7 8.7 3.4 14.6-.5 6.1-4.1 5.1-9.7-1.7-9.7-3.2-.1-3.4-.2-1.8-1.4.9-.7 2.8-1.1 4.1-.9 2.8.6 4.2-1.2 2.6-3.2-1.7-2.1-4.9-1.8-9.5.8zM355.3 284c-2 .8-2.3 1.7-2.3 6.8 0 4.5.4 6.3 1.9 7.6 2 1.9 5.6 1.1 8-1.8 1.1-1.3 1.1-1.7-.3-2.2-1.2-.5-1.6-2-1.6-6 0-5.8-.8-6.4-5.7-4.4zM298.6 286.9c-1.6 1.7-1.6 2.2-.2 5.6 2.3 5.3 5.5 9.5 7.4 9.5.9 0 4.3-2.3 7.5-5 3.2-2.8 6.3-5 6.8-5s1.8 2 2.9 4.5c2.2 5.1 3.3 5.1 8 0 5.8-6.2 8.6-5.6 9.6 2.1.5 4.3 1 5.4 2.5 5.4 2.7 0 4.9-3.9 4.9-9 0-5.8-2.2-9-6.1-9-3.4 0-6.4 1.3-9.6 4.2-2.1 2-2.1 2-3.5-.9-2.3-4.9-7.5-4.4-13.9 1.4-2.2 2-4.3 3.2-4.7 2.7-.5-.5-2-2.6-3.6-4.7-3-4.1-5.4-4.7-8-1.8z"/><path d="M384.7 297c-6.8 5.5-11.6 11.6-12.8 16.5l-1.1 4.2-7.3.6c-11.4.8-20.6 5.7-26.6 14-3.4 4.7-3.9 10.8-1.3 16.3 1.5 3.2 3.4 4.6 3.4 2.4 0-1.9 6.3-8.1 7.7-7.6.8.3 1.1.2.8-.4-.7-1.1 5.8-3 10.8-3h3.9l-3.2 2.6c-6.4 5.5-7.7 13.3-3 19.6l2.1 2.8-2.3.9c-3 1.1-5.4 3.9-7.2 8.2l-1.5 3.6-8.3.7c-10 .8-17.9 2.6-30 6.7-8.9 3-25.3 10-29.3 12.5-1.1.6-5.7 1.4-10.2 1.6l-8.2.5.6-7.6c.4-5.4.1-9.4-1.1-14-6.4-25.1-38.3-46.7-84-56.7-58.3-12.9-140.1 14.5-159.2 53.2-3.8 7.7-3.9 8-3.9 18.9.1 12.4 2.2 21 8 32.5 14.2 27.8 45.8 45.7 93 52.5 6.1.9 19.6 2 30 2.4 21.1.8 23.4 1.4 27.3 7.1 2.1 3.1 2.3 4.3 2 11.3-.5 7.5-.4 7.7 1.6 7.1 3.8-1.1 12.1-5.5 14.3-7.6 1.2-1.2 2.7-1.7 3.4-1.3.8.5 1 .4.5-.4-.4-.6.4-2.5 1.8-4.1 1.3-1.7 3-4.5 3.7-6.3l1.2-3.4 6.6 5c17.6 13.3 37.2 23.5 59.4 30.9 10.1 3.3 32.1 8.8 35.3 8.8 1.1 0 2.3.3 2.6.6.4.3-2.5 4.9-6.4 10.2-3.9 5.3-8 11.7-9.3 14.2l-2.3 4.6-11 1.2c-22.3 2.5-31.1 7.8-28.1 17 4.6 13.9 32.6 23.7 79.8 27.8 14.8 1.3 26 1.5 55.1 1.1 35.9-.6 43.7-1.1 65.3-4.2 36.4-5.3 58.4-16.9 51.2-27.2-2.7-3.8-17.3-7.3-30.8-7.3-5.5 0-6.9-.3-7.4-1.8-1.2-3-11.4-20.4-16.4-27.9l-4.8-7.1 4.2-.7c58.5-9.1 117.8-31 171.7-63.5 19-11.4 28.7-17.9 49.8-33.2 9-6.5 16.5-11.8 16.7-11.8.3 0 1.6-1 2.9-2.1 1.4-1.2 3.3-2.7 4.4-3.3 1.1-.6 6.6-4.3 12.4-8.1 13.2-8.9 12-8.1 27.3-17.3 16.5-10 39.4-22 51-26.7 8.1-3.3 20.5-10.2 20.5-11.5 0-.3-5.3-.5-11.8-.6-14.1-.1-17.7-.8-16.7-3.2.4-.9.9-5.5 1.2-10.3.6-9.8-.5-13.1-6.1-17.4-8.1-6.1-20-8.1-30.2-5-2.7.8-5.2 1.5-5.6 1.5-.3 0-.9-1.9-1.3-4.3-1-5.6-2.9-9.1-7.3-13.3-3.6-3.5-3.9-3.6-10-3.1-3.5.3-6.8.9-7.4 1.5-.6.6.2 2.7 2.6 6.2 4.6 6.6 5.1 8.7 3.7 15-.6 2.8-1.1 5.5-1.1 6 0 1.7 4.1 1.1 14.9-2 21-6.1 27.1-2.7 27.1 14.9v8l-11.3-.6-11.3-.6-3.5 3c-6.5 5.7-33.2 21-59.4 34.1-28.8 14.4-65.2 29.4-99.5 40.9l-19.5 6.5-4.9-3c-10.4-6.6-36.9-14.2-58.9-16.8-11.8-1.4-13.1-1.7-17.2-4.8-6.3-4.9-25.9-14.1-39.4-18.7-12.1-4-18.1-4.9-18.1-2.6 0 .8.6 1.4 1.3 1.4 1.9.1 32 11.9 38 14.8 16 8.1 32.1 22 31.5 27.3-.4 3.9-7.4 6.1-19.8 6.2-9.9 0-13.4 1-11.3 3.1 1.7 1.7 13 2.3 19.7 1 7.1-1.3 16.4-5.4 17.2-7.6 1-2.5-.4-6-4.1-10.9-1.9-2.5-2.9-4.6-2.2-4.6 3.1 0 21 3.3 30 5.5 13.9 3.5 30.7 9.7 30.7 11.5 0 .6-3 1.4-30 8.5-44.7 11.8-89.8 19-126 20.2-46.1 1.4-113.7-7.7-184.4-24.9-11.6-2.8-22.1-5.3-23.3-5.6-1.3-.2-2.3-.8-2.3-1.2 0-.8 7.4-3.6 20.2-7.5 9.1-2.8 10.2-2.8 20.3 0 13.1 3.7 26.9.3 37.3-9 5.3-4.9 6.5-5.5 10.3-5.5h4.2l-4.5 3c-2.5 1.7-6.7 5.3-9.3 8.1-3.7 3.9-4.6 5.5-4 7.2.3 1.2.7 2.7.7 3.4.1.7.5 1 1 .7.5-.4 1.9.3 3.1 1.3 4 3.6 10.1 6.5 17.6 8.4 7.9 2 20.1 2.6 20.1.9 0-.6-2-1-4.5-1-13.9 0-29.5-7.4-29.5-14.1 0-2.4 6.1-9.2 11.4-12.8 16.3-11.2 45.9-22.3 67.8-25.5 13.6-2.1 15.5-2 18.5.4 1.9 1.4 4.1 2 7.9 2 5.9 0 7.2-1.4 2.4-2.4-4.9-.9-8.2-4.9-7.8-9.4.3-3.2.8-3.9 4.2-5.5 3.3-1.6 4.6-1.7 7.7-.8 2 .6 6.5 1.1 10.1 1.1 8 0 14.5-3 21.6-10.1 5-5 6.2-7.8 6.2-14.5 0-2.5.4-3.4 1.6-3.4 2.7 0 8.1 3.8 11.8 8.3 3.2 3.8 3.6 4 6.1 2.9 5.6-2.6 8.1-18.2 3.9-23.9-2.8-3.8-11.5-8.1-19.1-9.5-5.8-1.1-6.3-1.4-6.3-3.7 0-5.6-6.8-16.7-12.8-21l-2.7-1.9-4.8 3.8zm10.1 10.7c4.6 10.2 4.7 18.5.3 25.5l-2.9 4.5-4.9-1.5c-4.7-1.4-5.1-1.8-6.2-6.1-1.4-5.5-.2-12.9 3-19.3 2.3-4.5 6-9.7 7-9.7.3-.1 2 2.9 3.7 6.6zm-24.3 19c.4 2.7 1.1 5.6 1.7 6.7 1.6 2.9-.3 3.6-6.2 2-6-1.5-9.9-1.2-17.2 1.7-5.3 2.1-5.4 2-3.4-1.9 2.9-5.6 10.1-10.8 16.7-12.1 7.6-1.5 7.6-1.5 8.4 3.6zm47.7-1.2c4.1 2 8.8 8.7 8.8 12.7 0 2.9-1.9 7.8-3 7.8-.4 0-1.3-.7-2.1-1.6-2.7-3.2-14.9-7.6-14.9-5.3 0 .5-2 .9-4.5.9h-4.6l2.5-4.3c1.3-2.3 3-6.2 3.6-8.6l1.1-4.4 4.8.6c2.6.3 6.3 1.3 8.3 2.2zm-259.3-.5c41.4 4.4 76.9 21 90.6 42.5 4.1 6.5 5.5 10.7 5.5 16.8 0 16.4-11.9 29.3-28.2 30.5-7.9.5-15-1.6-17.4-5.3-2.1-3.2-.9-8.6 2.6-12 2.7-2.6 3.3-2.7 10.3-2.3 4 .3 8.8 1.2 10.7 2.1l3.3 1.7-.6-6.3c-2.5-30.4-34.7-53.3-77.7-55.4-15.3-.8-26.9.9-35.7 5.2-7.5 3.5-14.1 9.9-16.2 15.5-2.6 7-2.5 6.8-4.9 5.9-1.2-.5-2.7-2.1-3.3-3.6-1-2.5-.8-11.3.2-15.3.3-1.1-.3-1.4-2.1-1.2-8.2 1.2-29.3 10.6-37.3 16.7-2.6 2-5.2 3.3-5.9 2.9-.7-.4-.8-.3-.4.4s-.8 2.5-2.9 4.3c-1.9 1.7-5.2 6.1-7.2 9.7-13.3 23.8-5.3 44.8 24.5 64.4 3.1 2.1 6 3.8 6.5 3.8.4 0 .5.5.1 1.2s-.3.8.4.4c.6-.4 2.2 0 3.4.8 3.5 2.2 14.5 6.6 21.8 8.8 16.6 4.8 29.5 4.3 41.7-1.7 9.5-4.7 13.3-9 13.3-15.3-.1-2.6-.7-5.8-1.5-7.2-2.1-3.6-1.9-4 1.8-4 3.8 0 6 2.5 17.2 20 3.7 5.8 10 14.4 14 19.2l7.3 8.6-.9 4.6c-1 5.6-2.9 9.4-6.2 12.4l-2.5 2.3-.6-3.5c-1.2-6.6-11-12.3-25.7-15.1-4.6-.8-16.5-2-26.4-2.6-19.8-1.1-28.6-2.6-41.7-6.9-18.6-6.2-33.2-15.2-46.9-29-8.4-8.4-10.3-10.9-14.2-19.1-9.5-19.9-9.1-31.2 1.6-46.1 8.8-12.4 24.6-25.4 41.3-34.1 8.6-4.4 23.2-9.9 24.5-9.1.5.3.9.1.9-.4 0-1 12.1-3.8 22-5.1 9.2-1.2 29.9-1.2 40.9-.1zm231.4 17.5c4.2 1.7 7.7 5.9 7.7 9 0 6-9 10.8-19.7 10.4-14.2-.4-20.8-8.9-12.8-16.5 5.6-5.3 16.2-6.5 24.8-2.9zm-218.7 1c32.3 5.6 56.2 23.3 59 43.8l.7 4.8-4.4-.8c-5.3-1-11.4-1-15 0-5.9 1.5-10.9 8.9-10.9 16.1 0 2.3-.5 3.5-1.7 3.9-1 .3-9.7 3.2-19.4 6.6l-17.7 6.1h-28.5l4.5 4.8c8 8.6 8.3 14.4 1 20.9-3.8 3.4-14 7.3-19.3 7.3-5.1 0-13.2-2.2-24.2-6.6-25.5-10.3-43.2-24.5-48.7-39.1-5.4-14.2 1.9-31.8 19.1-45.9 5-4.1 20.8-13.9 21.3-13.3.7.9 3.8 10.5 3.9 12.1.1.9.3 1.5.5 1.3.3-.2 1.9.7 3.8 2.1 3.5 2.7 11.1 5.4 15.1 5.4 2.1 0 2.3-.4 2.3-4.9 0-11.7 8.4-21.3 21.6-24.5 7.9-1.9 26.1-2 37-.1zm583.6 7.7c3.8.6 6.7 1.3 6.5 1.5-.8.8-28-1.8-29.6-2.8-1.9-1.3 12.6-.5 23.1 1.3zM730 355c2.6.8 26.5 3.2 39.8 4 1.9.1-2.7 3-14.8 9.3-27.1 14-50.8 28.7-80.6 50.3-11 7.9-27.5 19.5-36.9 25.8-20.1 13.5-50.2 30.9-51.7 30-.6-.4-.8-.3-.5.3.6.9-12.4 7.5-29.3 15.1-69.7 31-149.7 44.2-224.5 37.1-47.2-4.4-87.9-18.4-118.5-40.7-9.5-6.9-28.3-25.9-27.6-27.8.3-.8.2-1.3-.3-1.1-1.1.3-5.1-4.8-9.3-11.8-3.1-5.2-7.1-13.5-6.5-13.5.1 0 9.2 2.2 20.2 4.9 47.1 11.6 93.8 20.1 135.5 24.6 20.2 2.2 60.2 3 77.5 1.6 77.7-6.4 177.4-34.7 256.4-72.7 8.4-4 15.8-7.1 16.5-6.7.6.3.8.3.4-.2-.5-.5 6.7-4.9 16-10 9.2-5 20.5-11.5 25.2-14.3 4.7-2.9 8.7-5.2 9-5.2.3 0 2.1.5 4 1zm48.5 1c.3.5-.1 1-.9 1s-1.8-.5-2.1-1c-.3-.6.1-1 .9-1s1.8.4 2.1 1zM439.1 539.2c10.4 15.5 20.7 36.6 19.1 39.2-.3.6.5.4 1.8-.5 1.4-.9 2.6-2.6 2.8-3.7.5-3 4.6-3.5 16.4-2.3 11.2 1.1 14.1 2.3 13.6 5.4-.6 4.6-19.1 11.1-43.5 15.2-38 6.4-103.1 7.3-141.3 1.9-13-1.8-33.9-6.9-40-9.7-7.4-3.4-12.1-6.9-11.6-8.4.3-.8.2-1.2-.3-.9-1.4.9-1.9-1.6-1-4.2 1.3-3.5 8.4-6.1 18.9-6.9l9.1-.6-.6 3.5c-1 5 .8 7.6 6.9 10.3 6.4 2.8 22.9 7 36.1 9 14 2.3 54.6 3.1 72.7 1.6 23.2-2 40.1-5.6 49.7-10.6 1.8-.9 3.1-1.8 2.9-2-.2-.2-3.7.5-7.8 1.5-37.4 9.6-92.5 10.5-127.3 2.1-14.9-3.7-27.7-8.9-27.7-11.4 0-2.7 5.3-12.3 10.1-18.3 2.8-3.5 8.7-9.1 13.1-12.5 7.6-5.7 8.4-6 12.2-5.5 21.5 3 70.1 3.1 94.6.1 5.8-.7 11.5-1.3 12.7-1.4 1.8-.1 3.6 1.9 8.4 9.1z"/><path d="M366.7 345.8c-.9 1-2 3.2-2.3 5-.5 2.5-.1 3.5 2.1 5.6 4 3.7 5.8 3.5 3.9-.4-1.4-2.8-1.4-3.2.5-5.6 3.5-4.5-.5-8.8-4.2-4.6zM306.7 548.7c-1.7 2-9.7 16.3-9.7 17.5 0 1.7 1.7.7 2.7-1.5.6-1.2 3.6-5 6.7-8.4 3.1-3.3 5.6-6.8 5.6-7.7 0-2.1-3.3-2-5.3.1zM394.3 369.1c-.9.9-.6 2 1.3 4.4 3.1 4.2 3 6.9-.3 9.4-2.6 1.8-2.7 2.1-1.2 3.6 1.5 1.5 1.9 1.6 4.7.1 6.1-3.2 6-12.9-.1-16.9-3.1-2-3-2-4.4-.6zM385.6 385.5c-1.1.8-3.5 1.5-5.4 1.5-2.6 0-3.3.4-3 1.7.2 1.1 1.4 1.9 2.8 2.1 3 .3 9.5-3 9.5-4.8 0-1.9-1.7-2.1-3.9-.5zM334.2 390c-7.3 3.7-18.9 14.2-24.1 21.9-5.8 8.5-10.3 17.9-9.9 20.9.3 2.3.8 2.7 3.7 2.7 3.4 0 3.5-.1 7.7-9.8 2.3-5.4 5.8-12.2 7.8-15 3.6-5.2 12.7-14.5 20.1-20.4 5.2-4.1 2.7-4.2-5.3-.3zM409.6 394.1c12.4 9.8 24.8 27.5 26.2 37.6.7 4.8 2.8 7 5.6 6 1.7-.7 2.3-7.1.7-8.1-.5-.3-1.2-1.8-1.6-3.3-2.1-8.5-17.6-26.7-27.9-32.7-6.1-3.5-7.8-3.3-3 .5zM291.1 399.2c-5.1 2.5-13.2 10.2-15.6 14.7-1.6 3.1-1.2 2.9 5.5-2.7 3.9-3.3 9.1-7 11.6-8.3 4.2-2.3 5.4-4.1 3.6-5.3-.5-.3-2.8.4-5.1 1.6zM384.5 401.5c2.1 17.9 2.5 24.9 1.9 32.2-.5 7.1-.4 8.4 1 8.9 3.5 1.3 4.6-1.4 4.6-11 0-13.7-3-28.7-6.5-33.1-1.5-1.9-1.6-1.7-1 3zM378.4 417.2c-.4.7-1 5.1-1.2 9.9-.4 7.1-.2 8.7 1.1 9.2 2.8 1 3.9-2 4-11 .2-7.4-.1-8.8-1.5-9.1-.9-.2-2 .3-2.4 1zM309.2 437.3c.4 2.6 5.9 4.8 17.9 7.3 6.9 1.4 11.9 1.6 29.4 1.1 22.4-.7 28-1.4 28-3.7 0-1.2-1.2-1.4-6-1-3.3.3-15.9.5-28 .5-20.3 0-22.6-.2-29-2.3-13.6-4.5-12.7-4.4-12.3-1.9zM427 439.8c-3.3 1.1-8.1 1.5-17.8 1.5-9.5-.1-13.2.2-12.9 1.1 1.2 3.7 18.9 4.8 30.5 1.7 4-1 7.2-1.6 7.2-1.2 0 1.1 2-2.4 2-3.7 0-1.6-3.4-1.4-9 .6zM618.3 581.6c-1.5.6-1.8 4.4-.4 4.4.5 0-.3 3.6-1.7 8-3 9.2-2.5 10.5 3.7 9.6 5.6-.8 6.5-3.2 1.8-4.8-.4-.2.2-3 1.3-6.3 2.7-7.7 2.4-10.9-1-11.2-1.4-.1-3.1.1-3.7.3zM595.8 583.2c-3 1-3.8 2.8-1.3 2.8 2 0 1.9 1.9-.4 8.6-2.3 6.3-2 7.7 1.5 9.3 3.5 1.6 4.5 1.4 9.7-1.3 2.5-1.4 4.8-2.2 5.2-1.8.3.3.3-.1 0-1-.4-.9-.2-1.9.4-2.3.6-.3 1.1-2.2 1.1-4.1 0-2.8-.5-3.6-2.7-4.5-1.7-.6-3.6-.6-5.3 0-2.6.9-2.7.8-2.6-2.7.1-4.1-1.1-4.7-5.6-3zm11.2 11.5c0 1.7-4.6 5.3-6.7 5.3-2.9 0-2.9-1.3-.1-4 2-1.9 6.8-2.8 6.8-1.3z"/><path d="M562.4 590.2c-3.7 2.8-5.2 4.7-6.5 7.7-2.2 5.3 2.3 8.6 7.7 5.8 2.5-1.3 3-1.3 3.9 0 1 1.3 1.7 1.4 4.8.2 2.9-1 4-1 4.9-.1 1.7 1.7 7.3 1.5 10.8-.3 4.6-2.4 4.1-6.2-1-8.3-4-1.7-5.2-3.2-2.5-3.2.8 0 1.5.4 1.5 1 0 1.4 3.7 1.3 4.6-.1.3-.6-.1-1.8-1-2.7-3.8-3.8-14.7.3-12 4.6.6.9 2.6 2.2 4.5 2.8 3.7 1.3 4.4 2.7 1.6 3.2-1 .2-2.4-.4-3.1-1.4-.9-1.2-2.1-1.5-4-1.2-2.2.5-2.6.3-2-1.1.4-.9.8-3.2.8-5.1l.1-3.5-5.1-.3c-4-.2-5.6.2-8 2zm7.1 3.8c0 2.1-5.3 5.6-6.6 4.3-.9-.9-.5-1.8 1.5-3.8 2.7-2.7 5.1-2.9 5.1-.5z"/></svg>