<svg xmlns="http://www.w3.org/2000/svg" xmlns:xlink="http://www.w3.org/1999/xlink" xml:space="preserve" style="shape-rendering:geometricPrecision;text-rendering:geometricPrecision;image-rendering:optimizeQuality;" viewBox="0 0 0.333331 0.41666375" x="0px" y="0px" fill-rule="evenodd" clip-rule="evenodd"><defs><style type="text/css">
   
    .fil0 {fill:black}
   
  </style></defs><g><path class="fil0" d="M0.160535 0.223996c-0.00272441,-0.00762205 -9.44882e-005,-0.00827165 -0.00606693,-0.0124606 0.00514567,-0.00256693 0.0219094,0.00757874 0.0957677,-0.0563031 0.0448701,-0.0361811 0.0776772,-0.0428937 0.0651063,-0.044815 -0.00932283,-3.14961e-005 -0.0163268,0.00225197 -0.0279606,-9.44882e-005 -0.0429843,0.0194724 -0.0836772,0.0560591 -0.105709,0.0349843l-0.0884528 0.00030315c-0.00542913,1.5748e-005 -0.00812992,0.00825984 -0.0125984,0.0148425 -0.0059252,-0.0270748 -0.0518858,-0.0321024 -0.059315,-0.019689 -0.0337717,0.0517677 0.0870945,0.0536024 0.0577165,0.0596772 -0.0043622,0.000901575 0.00195276,0.00822835 0.00808268,0.00922835 0.0122165,0.00046063 0.00985827,-0.00488189 0.00679921,-0.00839764 0.00695669,0.00659449 0.013937,0.00682677 0.0282874,0.0106496 -0.00671654,0.00419685 -0.00412598,0.00709055 -0.00617323,0.0114331 -0.0861772,0.00862205 0.135874,0.00685433 0.0445157,0.000641732zm-0.0839449 -0.0566063c-0.00294882,0.0076378 -0.00208661,0.00911024 -0.00104724,0.012685 -0.00606299,-0.0215866 -0.0597244,0.00324409 -0.0497126,-0.0346102 0.00205512,-0.00759449 0.045685,-0.00927559 0.0507598,0.0219252z"/><path class="fil0" d="M0.136244 0.104087c-0.00718504,0 -0.0130118,0.00582677 -0.0130118,0.0130118 0,0.00596063 0.00400787,0.0109843 0.00948031,0.0125276l-9.05512e-005 0.0015748 -0.000622047 7.87402e-006 3.93701e-006 4.33071e-005c-0.0150984,0.000437008 -0.0243976,0.00320079 -0.0405276,0.012248l0.0412992 0 0.0066811 0 0.0412992 0c-0.0161339,-0.00904724 -0.0254291,-0.011815 -0.0405276,-0.012248l3.93701e-006 -4.33071e-005 -0.000326772 -3.93701e-006 -7.08661e-005 -0.00159449c0.00544094,-0.00155906 0.0094252,-0.00656693 0.0094252,-0.0125118 0,-0.00718504 -0.00582677,-0.0130118 -0.0130157,-0.0130118z"/></g><text x="0" y="15.333331" fill="#000000" font-size="5px" font-weight="bold" font-family="'Helvetica Neue', Helvetica, Arial-Unicode, Arial, Sans-serif">Created by Abdul Wahhab</text><text x="0" y="20.333331" fill="#000000" font-size="5px" font-weight="bold" font-family="'Helvetica Neue', Helvetica, Arial-Unicode, Arial, Sans-serif">from the Noun Project</text></svg>